<?xml version="1.0" encoding="UTF-8"?>
<svg width="192" height="192" viewBox="0 0 192 192" fill="none" xmlns="http://www.w3.org/2000/svg">
  <!-- Background Circle -->
  <circle cx="96" cy="96" r="88" fill="#4CAF50"/>
  
  <!-- Calendar Design -->
  <g transform="translate(48, 48)" fill="white">
    <!-- Calendar Top Bar -->
    <path d="M0 16C0 7.16344 7.16344 0 16 0H80C88.8366 0 96 7.16344 96 16V24H0V16Z"/>
    
    <!-- Calendar Body -->
    <path d="M0 24H96V80C96 88.8366 88.8366 96 80 96H16C7.16344 96 0 88.8366 0 80V24Z"/>
    
    <!-- Calendar Lines -->
    <rect x="12" y="36" width="16" height="4" rx="2" fill="#4CAF50"/>
    <rect x="40" y="36" width="16" height="4" rx="2" fill="#4CAF50"/>
    <rect x="68" y="36" width="16" height="4" rx="2" fill="#4CAF50"/>
    
    <rect x="12" y="52" width="16" height="4" rx="2" fill="#4CAF50"/>
    <rect x="40" y="52" width="16" height="4" rx="2" fill="#4CAF50"/>
    <rect x="68" y="52" width="16" height="4" rx="2" fill="#4CAF50"/>
    
    <rect x="12" y="68" width="16" height="4" rx="2" fill="#4CAF50"/>
    <rect x="40" y="68" width="16" height="4" rx="2" fill="#4CAF50"/>
    <rect x="68" y="68" width="16" height="4" rx="2" fill="#4CAF50"/>
  </g>
</svg>
